<svg width="15" height="14" viewBox="0 0 15 14" fill="none" xmlns="http://www.w3.org/2000/svg">
<path d="M7.15336 1.33265C7.18156 1.26387 7.22958 1.20503 7.29131 1.16362C7.35304 1.12221 7.42569 1.1001 7.50003 1.1001C7.57436 1.1001 7.64702 1.12221 7.70875 1.16362C7.77048 1.20503 7.8185 1.26387 7.8467 1.33265L9.26336 4.73998C9.28988 4.80374 9.33347 4.85894 9.38934 4.89952C9.44521 4.9401 9.5112 4.96448 9.58003 4.96998L13.2587 5.26465C13.5914 5.29131 13.726 5.70665 13.4727 5.92331L10.67 8.32465C10.6177 8.36944 10.5786 8.42778 10.5572 8.49328C10.5358 8.55878 10.5329 8.62891 10.5487 8.69598L11.4054 12.286C11.4226 12.358 11.4181 12.4335 11.3924 12.503C11.3667 12.5724 11.321 12.6327 11.2611 12.6763C11.2012 12.7198 11.1297 12.7445 11.0557 12.7475C10.9817 12.7504 10.9085 12.7313 10.8454 12.6926L7.69536 10.7693C7.63654 10.7334 7.56895 10.7144 7.50003 10.7144C7.4311 10.7144 7.36351 10.7334 7.30469 10.7693L4.15469 12.6933C4.09153 12.732 4.01833 12.7511 3.94433 12.7481C3.87034 12.7452 3.79886 12.7204 3.73894 12.6769C3.67902 12.6334 3.63334 12.5731 3.60766 12.5036C3.58199 12.4342 3.57748 12.3587 3.59469 12.2866L4.45136 8.69598C4.46725 8.62891 4.46433 8.55876 4.44292 8.49325C4.42151 8.42773 4.38245 8.36939 4.33003 8.32465L1.52736 5.92331C1.47092 5.8752 1.43003 5.81143 1.40987 5.74006C1.3897 5.66869 1.39117 5.59295 1.41409 5.52241C1.437 5.45188 1.48033 5.38974 1.5386 5.34385C1.59686 5.29796 1.66742 5.2704 1.74136 5.26465L5.42003 4.96998C5.48886 4.96448 5.55484 4.9401 5.61071 4.89952C5.66658 4.85894 5.71018 4.80374 5.73669 4.73998L7.15336 1.33265Z"  stroke-linecap="round" stroke-linejoin="round"/>
</svg>
